<svg xmlns="http://www.w3.org/2000/svg" xmlns:xlink="http://www.w3.org/1999/xlink" width="186" height="23" viewBox="0 0 186 23">
  <defs>
    <clipPath id="clip-Custom_Size_1">
      <rect width="186" height="23"/>
    </clipPath>
  </defs>
  <g id="Custom_Size_1" data-name="Custom Size – 1" clip-path="url(#clip-Custom_Size_1)">
    <g id="OM_System_Black_-_One_Line_-_RGB" data-name="OM System Black - One Line - RGB" transform="translate(93 11.662)">
      <g id="Group_2" data-name="Group 2" transform="translate(-92 -10.662)">
        <path id="Path_1" data-name="Path 1" d="M31.658,12.007,27.054.736H20.941V8.484a10.591,10.591,0,1,0-10.358,12.84,10.606,10.606,0,0,0,10.358-8.482v7.653h4.794V9.737l4.1,10.757h3.647l4.1-10.757V20.494h4.794V.736H36.259ZM10.583,16.538a5.876,5.876,0,1,1,5.832-5.876A5.854,5.854,0,0,1,10.583,16.538Z"/>
        <g id="Group_1" data-name="Group 1" transform="translate(50.535 3.395)">
          <path id="Path_2" data-name="Path 2" d="M48.873,7.789h5.047a14.711,14.711,0,0,0-.136-1.979A3.338,3.338,0,0,0,52.54,3.593,8.918,8.918,0,0,0,49.166,2.52a51.132,51.132,0,0,0-5.354-.2,34.187,34.187,0,0,0-5.265.372,5.162,5.162,0,0,0-3.028,1.776,6.159,6.159,0,0,0-.938,3.11,7.607,7.607,0,0,0,.553,3.274,3.258,3.258,0,0,0,1.312,1.37,8.207,8.207,0,0,0,3.207.58c1.448.067,3.156.1,4.535.136,1.4.044,3.257.126,4.006.18a1.139,1.139,0,0,1,1.193,1.114,1.088,1.088,0,0,1-.784,1.11,24.854,24.854,0,0,1-4.067.195,37.312,37.312,0,0,1-3.877-.161,1.4,1.4,0,0,1-1.177-1.4h-5a15.923,15.923,0,0,0,.161,2.2,3.855,3.855,0,0,0,.938,1.859,3.106,3.106,0,0,0,1.551.938,40.606,40.606,0,0,0,6.854.444,60.018,60.018,0,0,0,6.308-.186,6.154,6.154,0,0,0,2.5-.922,5.06,5.06,0,0,0,1.441-1.91,6.665,6.665,0,0,0,.35-2.454,6.713,6.713,0,0,0-.784-3.137,3.143,3.143,0,0,0-1.586-1.348,11.459,11.459,0,0,0-2.951-.494c-.834-.034-3.528-.119-4.841-.152-1.073-.028-3.349-.12-3.868-.239a.865.865,0,0,1-.783-.973.879.879,0,0,1,.731-.97A17.021,17.021,0,0,1,44.153,6.3a23.43,23.43,0,0,1,3.613.213,1.532,1.532,0,0,1,.887.529A1.7,1.7,0,0,1,48.873,7.789Z" transform="translate(-34.478 -2.316)" fill-rule="evenodd"/>
          <path id="Path_3" data-name="Path 3" d="M59.577,8.776,64.962,2.41h6.362l-9.19,10.951v5.858H57.105l-.087-5.858L47.83,2.41h6.357Z" transform="translate(-28.26 -2.272)"/>
          <path id="Path_4" data-name="Path 4" d="M97.9,2.41V6.84H90.554V19.219H85.441V6.84H78.093V2.41Z" transform="translate(-14.165 -2.272)"/>
          <path id="Path_5" data-name="Path 5" d="M97.99,15.364h12.787v3.855h-17.9V2.41h17.9V6.261H97.99V8.886h12v3.855h-12Z" transform="translate(-7.281 -2.272)"/>
          <path id="Path_6" data-name="Path 6" d="M120.551,19.219H118.6l-6.18-11.147c-.056-.106-.142-.254-.267-.23-.158.034-.155.22-.155.347v11.03h-5.115V2.41h7.981l5.631,10.155c.015.029.034.045.06.04s.044-.01.062-.04L126.241,2.41h7.982V19.219H129.11V8.189c0-.128,0-.314-.158-.347-.123-.023-.21.125-.265.23l-6.179,11.147Z" transform="translate(-0.759 -2.272)"/>
          <path id="Path_7" data-name="Path 7" d="M78.1,7.789h5.045a14.87,14.87,0,0,0-.135-1.979,3.352,3.352,0,0,0-1.244-2.218A8.908,8.908,0,0,0,78.393,2.52a51.065,51.065,0,0,0-5.353-.2,34.151,34.151,0,0,0-5.263.372,5.165,5.165,0,0,0-3.03,1.776,6.159,6.159,0,0,0-.938,3.11,7.582,7.582,0,0,0,.554,3.274,3.249,3.249,0,0,0,1.312,1.37,8.193,8.193,0,0,0,3.206.58c1.448.067,3.156.1,4.532.136,1.4.044,3.26.126,4.009.18a1.138,1.138,0,0,1,1.193,1.114,1.089,1.089,0,0,1-.786,1.11,24.825,24.825,0,0,1-4.066.195,37.293,37.293,0,0,1-3.877-.161,1.394,1.394,0,0,1-1.177-1.4h-5a15.923,15.923,0,0,0,.161,2.2,3.842,3.842,0,0,0,.938,1.859,3.1,3.1,0,0,0,1.551.938,40.613,40.613,0,0,0,6.855.444,60,60,0,0,0,6.307-.186,6.139,6.139,0,0,0,2.5-.922,5.048,5.048,0,0,0,1.442-1.91,6.665,6.665,0,0,0,.35-2.454,6.731,6.731,0,0,0-.784-3.137,3.137,3.137,0,0,0-1.586-1.348,11.448,11.448,0,0,0-2.951-.494c-.833-.034-3.528-.119-4.841-.152-1.073-.028-3.349-.12-3.87-.239A.868.868,0,0,1,69,7.6a.883.883,0,0,1,.736-.97A17.022,17.022,0,0,1,73.381,6.3a23.43,23.43,0,0,1,3.613.213,1.532,1.532,0,0,1,.887.529A1.707,1.707,0,0,1,78.1,7.789Z" transform="translate(-20.866 -2.316)" fill-rule="evenodd"/>
        </g>
      </g>
    </g>
  </g>
</svg>
